<svg xmlns="http://www.w3.org/2000/svg" viewBox="0 0 512 512" role="img" aria-label="Fraud Shield icon">
  <defs>
    <linearGradient id="g" x1="0" y1="0" x2="1" y2="1">
      <stop offset="0%" stop-color="#5DA8FF"/>
      <stop offset="55%" stop-color="#34D399"/>
      <stop offset="100%" stop-color="#FF5500"/>
    </linearGradient>
  </defs>
  <rect width="512" height="512" rx="112" fill="#0D1624"/>
  <path d="M256 72l122 44v84c0 95-61 160-122 240-61-80-122-145-122-240V116l122-44z" fill="url(#g)"/>
  <path d="M256 138c44 0 80 36 80 80 0 44-36 80-80 80s-80-36-80-80c0-44 36-80 80-80zm0 44c-19 0-34 15-34 34 0 19 15 34 34 34s34-15 34-34c0-19-15-34-34-34z" fill="#FFFFFF" opacity="0.9"/>
</svg>
